<svg width="24" height="24" viewBox="0 0 24 24" fill="none" xmlns="http://www.w3.org/2000/svg">
<path d="M6 20.8217C5.225 20.8217 4.53333 20.655 3.925 20.3217C3.31667 19.98 2.84167 19.505 2.5 18.8967C2.16667 18.2883 2 17.5967 2 16.8217V6.82166C2 6.04666 2.16667 5.35499 2.5 4.74665C2.84167 4.13832 3.31667 3.66749 3.925 3.33415C4.53333 2.99249 5.225 2.82166 6 2.82166H18C18.775 2.82166 19.4667 2.99249 20.075 3.33415C20.6833 3.66749 21.1542 4.13832 21.4875 4.74665C21.8292 5.35499 22 6.04666 22 6.82166V16.8217C22 17.5967 21.8292 18.2883 21.4875 18.8967C21.1542 19.505 20.6833 19.98 20.075 20.3217C19.4667 20.655 18.775 20.8217 18 20.8217H6Z" fill="#DFDFDF"/>
<path d="M18 2.82166C18.775 2.82166 19.4669 2.99268 20.0752 3.33435C20.6834 3.66767 21.154 4.13825 21.4873 4.74646C21.829 5.35479 22 6.04665 22 6.82166V8.82166H2V6.82166C2 6.04668 2.16669 5.35478 2.5 4.74646C2.8416 4.13824 3.31664 3.66767 3.9248 3.33435C4.53314 2.99268 5.225 2.82166 6 2.82166H18Z" fill="#2E9EFF"/>
<path d="M8.2875 6.53415C8.4875 6.72582 8.725 6.82166 9 6.82166C9.275 6.82166 9.50833 6.72582 9.7 6.53415C9.9 6.33416 10 6.09666 10 5.82166C10 5.54666 9.9 5.31332 9.7 5.12166C9.50833 4.92166 9.275 4.82166 9 4.82166C8.725 4.82166 8.4875 4.92166 8.2875 5.12166C8.09583 5.31332 8 5.54666 8 5.82166C8 6.09666 8.09583 6.33416 8.2875 6.53415Z" fill="#77C0FF"/>
<path d="M11.2875 6.53415C11.4875 6.72582 11.725 6.82166 12 6.82166C12.275 6.82166 12.5083 6.72582 12.7 6.53415C12.9 6.33416 13 6.09666 13 5.82166C13 5.54666 12.9 5.31332 12.7 5.12166C12.5083 4.92166 12.275 4.82166 12 4.82166C11.725 4.82166 11.4875 4.92166 11.2875 5.12166C11.0958 5.31332 11 5.54666 11 5.82166C11 6.09666 11.0958 6.33416 11.2875 6.53415Z" fill="#77C0FF"/>
<path d="M5.2875 6.53415C5.4875 6.72582 5.725 6.82166 6 6.82166C6.275 6.82166 6.50833 6.72582 6.7 6.53415C6.9 6.33416 7 6.09666 7 5.82166C7 5.54666 6.9 5.31332 6.7 5.12166C6.50833 4.92166 6.275 4.82166 6 4.82166C5.725 4.82166 5.4875 4.92166 5.2875 5.12166C5.09583 5.31332 5 5.54666 5 5.82166C5 6.09666 5.09583 6.33416 5.2875 6.53415Z" fill="#77C0FF"/>
<path d="M14.8743 11.5826C15.2061 11.5273 15.5378 11.6063 15.8696 11.8196L23.052 16.3464C23.3838 16.5598 23.5928 16.8405 23.6797 17.1881C23.7745 17.5279 23.735 17.8522 23.5612 18.1603C23.3874 18.4603 23.1148 18.6655 22.7436 18.776L21.227 19.227L22.0123 20.4584C22.1625 20.735 22.2373 21.0156 22.2373 21.3001C22.2373 21.5766 22.1625 21.8376 22.0123 22.0825C21.8701 22.3273 21.661 22.5291 21.3846 22.6871L20.0809 23.4334C19.8123 23.5993 19.5356 23.6866 19.2513 23.6945C18.9668 23.7024 18.7018 23.6307 18.4568 23.4806C18.2199 23.3305 18.0222 23.1131 17.8642 22.8288L17.0789 21.6205L16.0002 22.6871C15.7474 22.932 15.4387 23.0506 15.0752 23.0427C14.7119 23.0426 14.3956 22.9199 14.1271 22.6751C13.8666 22.4302 13.7363 22.1024 13.7363 21.6917V12.9567C13.7364 12.6092 13.8435 12.3094 14.0567 12.0567C14.27 11.7959 14.5424 11.6379 14.8743 11.5826Z" fill="#4D4D4D"/>
</svg>
